0
SECTION
2
HEADER
9
$INSUNITS
70
4
9
$ACADVER
1
AC1014
9
$HANDSEED
5
FFFF
0
ENDSEC
0
SECTION
2
TABLES
0
TABLE
2
VPORT
5
8
100
AcDbSymbolTable
0
ENDTAB
0
TABLE
2
LTYPE
5
5
100
AcDbSymbolTable
0
LTYPE
5
14
100
AcDbSymbolTableRecord
100
AcDbLinetypeTableRecord
2
BYBLOCK
70
0
0
LTYPE
5
15
100
AcDbSymbolTableRecord
100
AcDbLinetypeTableRecord
2
BYLAYER
70
0
0
ENDTAB
0
TABLE
2
LAYER
5
2
100
AcDbSymbolTable
70
2
0
LAYER
5
50
100
AcDbSymbolTableRecord
100
AcDbLayerTableRecord
2
0
70
0
6
CONTINUOUS
0
ENDTAB
0
TABLE
2
STYLE
5
3
100
AcDbSymbolTable
70
1
0
STYLE
5
11
100
AcDbSymbolTableRecord
100
AcDbTextStyleTableRecord
2
STANDARD
70
0
0
ENDTAB
0
TABLE
2
VIEW
5
6
100
AcDbSymbolTable
70
0
0
ENDTAB
0
TABLE
2
UCS
5
7
100
AcDbSymbolTable
70
0
0
ENDTAB
0
TABLE
2
APPID
5
9
100
AcDbSymbolTable
70
2
0
APPID
5
12
100
AcDbSymbolTableRecord
100
AcDbRegAppTableRecord
2
ACAD
70
0
0
ENDTAB
0
TABLE
2
DIMSTYLE
5
A
100
AcDbSymbolTable
70
1
0
ENDTAB
0
TABLE
2
BLOCK_RECORD
5
1
100
AcDbSymbolTable
70
1
0
BLOCK_RECORD
5
1F
100
AcDbSymbolTableRecord
100
AcDbBlockTableRecord
2
*MODEL_SPACE
0
BLOCK_RECORD
5
1B
100
AcDbSymbolTableRecord
100
AcDbBlockTableRecord
2
*PAPER_SPACE
0
ENDTAB
0
ENDSEC
0
SECTION
2
BLOCKS
0
BLOCK
5
20
100
AcDbEntity
100
AcDbBlockBegin
2
*MODEL_SPACE
0
ENDBLK
5
21
100
AcDbEntity
100
AcDbBlockEnd
0
BLOCK
5
1C
100
AcDbEntity
100
AcDbBlockBegin
2
*PAPER_SPACE
0
ENDBLK
5
1D
100
AcDbEntity
100
AcDbBlockEnd
0
ENDSEC
0
SECTION
2
ENTITIES
0
CIRCLE
5
100
100
AcDbEntity
8
0
100
AcDbCircle
10
38.500000000000007
20
0
30
0
40
3.9999999999999991
0
LWPOLYLINE
5
101
100
AcDbEntity
8
0
100
AcDbPolyline
90
6
70
1
43
0.0
10
8.4105958636065488
20
38.035761654557369
42
-0.8257927641208328
10
8.5962912017835968
20
39
10
19.999999999999972
20
39
42
-0.41421356237309437
10
20.999999999999979
20
38
10
20.999999999999972
20
34.4770329614269
42
-0.5305984520674949
10
19.628609323645872
20
33.548556270541646
0
LWPOLYLINE
5
102
100
AcDbEntity
8
0
100
AcDbPolyline
90
6
70
1
43
0.0
10
6.999999999999976
20
30.999999999999996
42
-0.41421356237309309
10
5.9999999999999689
20
31.999999999999993
10
5.9999999999999698
20
35.5229670385731
42
-0.53059845206750111
10
7.3713906763540749
20
36.451443729458354
10
18.589404136393398
20
31.964238345442631
42
-0.82579276412084179
10
18.403708798216346
20
30.999999999999996
0
CIRCLE
5
103
100
AcDbEntity
8
0
100
AcDbCircle
10
27.223611075682051
20
48.223611075682072
30
0
40
3.9999999999999991
0
LWPOLYLINE
5
104
100
AcDbEntity
8
0
100
AcDbPolyline
90
6
70
1
43
0.0
10
6.9999999999999858
20
18.5
42
-0.41421356237309437
10
5.9999999999999805
20
19.499999999999996
10
5.9999999999999796
20
23.0229670385731
42
-0.53059845206750111
10
7.3713906763540837
20
23.951443729458358
10
18.589404136393409
20
19.464238345442631
42
-0.82579276412084102
10
18.403708798216357
20
18.5
0
LWPOLYLINE
5
105
100
AcDbEntity
8
0
100
AcDbPolyline
90
6
70
1
43
0.0
10
8.4105958636065576
20
25.535761654557373
42
-0.8257927641208328
10
8.5962912017836057
20
26.500000000000004
10
19.999999999999986
20
26.500000000000004
42
-0.41421356237309437
10
20.999999999999986
20
25.5
10
20.999999999999986
20
21.9770329614269
42
-0.53059845206749567
10
19.628609323645879
20
21.048556270541638
0
LWPOLYLINE
5
106
100
AcDbEntity
8
0
100
AcDbPolyline
90
4
70
1
43
0.0
10
26.117714323462184
20
24.488887394336022
10
29.981417628618455
20
25.524163574746108
10
28.428503358003336
20
31.319718532480515
10
24.564800052847062
20
30.284442352070432
0
LWPOLYLINE
5
107
100
AcDbEntity
8
0
100
AcDbPolyline
90
6
70
1
43
0.0
10
20.999999999999996
20
9.477032961426902
42
-0.53059845206749578
10
19.62860932364589
20
8.548556270541642
10
8.4105958636065701
20
13.035761654557367
42
-0.8257927641208338
10
8.5962912017836182
20
14.000000000000004
10
19.999999999999996
20
14.000000000000002
42
-0.4142135623730937
10
20.999999999999996
20
13
0
LWPOLYLINE
5
108
100
AcDbEntity
8
0
100
AcDbPolyline
90
4
70
1
43
0.0
10
28.447085729384874
20
15.79555495773441
10
30
20
10
10
33.863703305156264
20
11.035276180410087
10
32.310789034541145
20
16.830831138144493
0
LWPOLYLINE
5
109
100
AcDbEntity
8
0
100
AcDbPolyline
90
6
70
1
43
0.0
10
18.589404136393419
20
6.9642383454426309
42
-0.82579276412084046
10
18.403708798216371
20
6.0000000000000009
10
6.9999999999999973
20
5.9999999999999982
42
-0.4142135623730947
10
5.9999999999999929
20
6.9999999999999973
10
5.9999999999999929
20
10.5229670385731
42
-0.53059845206749934
10
7.3713906763540926
20
11.451443729458354
0
LWPOLYLINE
5
110
100
AcDbEntity
8
0
100
AcDbPolyline
90
24
70
1
43
0.0
10
50
20
4.7879473267248729
10
49.999999999999993
20
-4.7879473267248702
42
-0.2877595197460095
10
45.480000000000004
20
-11.991390947660619
42
0.48407049176139766
10
38.660461366918696
20
-42.615225745752511
42
-0.35662963160939742
10
38.634102278197837
20
-52.739661957206508
42
-0.06212944271460711
10
29.653106287168395
20
-61.257835107242059
42
-0.46204782018722768
10
17.791863772301049
20
-58.470611232882561
42
0.61066821228234158
10
-17.791863772301035
20
-58.470611232882526
42
-0.46204782018722845
10
-29.65310628716837
20
-61.25783510724208
42
-0.062129442714607332
10
-38.634102278197844
20
-52.739661957206565
42
-0.35662963160939487
10
-38.660461366918703
20
-42.615225745752511
42
0.48407049176139733
10
-45.480000000000004
20
-11.991390947660634
42
-0.28775951974601
10
-50
20
-4.7879473267248729
10
-49.999999999999993
20
4.7879473267248702
42
-0.2877595197460095
10
-45.480000000000004
20
11.991390947660619
42
0.48407049176139766
10
-38.660461366918696
20
42.615225745752511
42
-0.35662963160939742
10
-38.634102278197837
20
52.739661957206508
42
-0.06212944271460711
10
-29.653106287168395
20
61.257835107242059
42
-0.46204782018722768
10
-17.791863772301049
20
58.470611232882561
42
0.61066821228234158
10
17.791863772301035
20
58.470611232882526
42
-0.46204782018722845
10
29.65310628716837
20
61.25783510724208
42
-0.062129442714607332
10
38.634102278197844
20
52.739661957206565
42
-0.35662963160939487
10
38.660461366918703
20
42.615225745752511
42
0.48407049176139733
10
45.480000000000004
20
11.991390947660634
42
-0.28775951974601
0
LWPOLYLINE
5
111
100
AcDbEntity
8
0
100
AcDbPolyline
90
6
70
1
43
0.0
10
-18.403708798216371
20
6.0000000000000009
42
-0.82579276412084046
10
-18.589404136393419
20
6.9642383454426309
10
-7.3713906763540926
20
11.451443729458353
42
-0.53059845206750134
10
-5.9999999999999911
20
10.522967038573096
10
-5.999999999999992
20
6.9999999999999973
42
-0.41421356237309437
10
-6.9999999999999973
20
5.9999999999999982
0
LWPOLYLINE
5
112
100
AcDbEntity
8
0
100
AcDbPolyline
90
4
70
1
43
0.0
10
-30
20
10
10
-28.447085729384874
20
15.79555495773441
10
-32.310789034541145
20
16.830831138144493
10
-33.863703305156264
20
11.035276180410087
0
LWPOLYLINE
5
113
100
AcDbEntity
8
0
100
AcDbPolyline
90
6
70
1
43
0.0
10
-19.62860932364589
20
8.548556270541642
42
-0.53059845206749423
10
-20.999999999999996
20
9.477032961426902
10
-20.999999999999996
20
12.999999999999998
42
-0.41421356237309437
10
-19.999999999999996
20
14.000000000000002
10
-8.5962912017836182
20
14.000000000000004
42
-0.8257927641208328
10
-8.4105958636065701
20
13.035761654557369
0
LWPOLYLINE
5
114
100
AcDbEntity
8
0
100
AcDbPolyline
90
4
70
1
43
0.0
10
-29.981417628618455
20
25.524163574746108
10
-26.117714323462184
20
24.488887394336022
10
-24.564800052847062
20
30.284442352070432
10
-28.428503358003336
20
31.319718532480515
0
LWPOLYLINE
5
115
100
AcDbEntity
8
0
100
AcDbPolyline
90
6
70
1
43
0.0
10
-8.5962912017836075
20
26.500000000000004
42
-0.82579276412083991
10
-8.4105958636065559
20
25.535761654557369
10
-19.628609323645879
20
21.048556270541638
42
-0.53059845206749767
10
-20.999999999999986
20
21.9770329614269
10
-20.999999999999986
20
25.5
42
-0.41421356237309176
10
-19.999999999999986
20
26.500000000000004
0
LWPOLYLINE
5
116
100
AcDbEntity
8
0
100
AcDbPolyline
90
6
70
1
43
0.0
10
-5.9999999999999796
20
19.499999999999996
42
-0.4142135623730947
10
-6.9999999999999858
20
18.5
10
-18.403708798216357
20
18.5
42
-0.82579276412084102
10
-18.589404136393409
20
19.464238345442631
10
-7.3713906763540837
20
23.951443729458358
42
-0.53059845206750111
10
-5.9999999999999796
20
23.0229670385731
0
CIRCLE
5
117
100
AcDbEntity
8
0
100
AcDbCircle
10
-27.223611075682051
20
48.223611075682072
30
0
40
3.9999999999999991
0
LWPOLYLINE
5
118
100
AcDbEntity
8
0
100
AcDbPolyline
90
6
70
1
43
0.0
10
-5.9999999999999698
20
31.999999999999993
42
-0.41421356237309276
10
-6.9999999999999751
20
30.999999999999996
10
-18.403708798216346
20
31
42
-0.82579276412084912
10
-18.589404136393398
20
31.964238345442631
10
-7.3713906763540749
20
36.451443729458354
42
-0.53059845206750111
10
-5.9999999999999698
20
35.5229670385731
0
LWPOLYLINE
5
119
100
AcDbEntity
8
0
100
AcDbPolyline
90
6
70
1
43
0.0
10
-8.5962912017835968
20
39
42
-0.82579276412083991
10
-8.410595863606547
20
38.035761654557369
10
-19.628609323645868
20
33.548556270541646
42
-0.53059845206749234
10
-20.999999999999975
20
34.4770329614269
10
-20.999999999999979
20
38
42
-0.41421356237308982
10
-19.999999999999972
20
39
0
LWPOLYLINE
5
120
100
AcDbEntity
8
0
100
AcDbPolyline
90
6
70
1
43
0.0
10
-8.4105958636065488
20
-38.035761654557369
42
-0.8257927641208328
10
-8.5962912017835968
20
-39
10
-19.999999999999972
20
-39
42
-0.41421356237309437
10
-20.999999999999979
20
-38
10
-20.999999999999972
20
-34.4770329614269
42
-0.5305984520674949
10
-19.628609323645872
20
-33.548556270541646
0
LWPOLYLINE
5
121
100
AcDbEntity
8
0
100
AcDbPolyline
90
6
70
1
43
0.0
10
-6.999999999999976
20
-30.999999999999996
42
-0.41421356237309309
10
-5.9999999999999689
20
-31.999999999999993
10
-5.9999999999999698
20
-35.5229670385731
42
-0.53059845206750111
10
-7.3713906763540749
20
-36.451443729458354
10
-18.589404136393398
20
-31.964238345442631
42
-0.82579276412084179
10
-18.403708798216346
20
-30.999999999999996
0
CIRCLE
5
122
100
AcDbEntity
8
0
100
AcDbCircle
10
-27.223611075682051
20
-48.223611075682072
30
0
40
3.9999999999999991
0
LWPOLYLINE
5
123
100
AcDbEntity
8
0
100
AcDbPolyline
90
6
70
1
43
0.0
10
-6.9999999999999858
20
-18.5
42
-0.41421356237309437
10
-5.9999999999999805
20
-19.499999999999996
10
-5.9999999999999796
20
-23.0229670385731
42
-0.53059845206750111
10
-7.3713906763540837
20
-23.951443729458358
10
-18.589404136393409
20
-19.464238345442631
42
-0.82579276412084102
10
-18.403708798216357
20
-18.5
0
LWPOLYLINE
5
124
100
AcDbEntity
8
0
100
AcDbPolyline
90
6
70
1
43
0.0
10
-8.4105958636065576
20
-25.535761654557373
42
-0.8257927641208328
10
-8.5962912017836057
20
-26.500000000000004
10
-19.999999999999986
20
-26.500000000000004
42
-0.41421356237309437
10
-20.999999999999986
20
-25.5
10
-20.999999999999986
20
-21.9770329614269
42
-0.53059845206749567
10
-19.628609323645879
20
-21.048556270541638
0
LWPOLYLINE
5
125
100
AcDbEntity
8
0
100
AcDbPolyline
90
4
70
1
43
0.0
10
-26.117714323462184
20
-24.488887394336022
10
-29.981417628618455
20
-25.524163574746108
10
-28.428503358003336
20
-31.319718532480515
10
-24.564800052847062
20
-30.284442352070432
0
LWPOLYLINE
5
126
100
AcDbEntity
8
0
100
AcDbPolyline
90
6
70
1
43
0.0
10
-20.999999999999996
20
-9.477032961426902
42
-0.53059845206749578
10
-19.62860932364589
20
-8.548556270541642
10
-8.4105958636065701
20
-13.035761654557367
42
-0.8257927641208338
10
-8.5962912017836182
20
-14.000000000000004
10
-19.999999999999996
20
-14.000000000000002
42
-0.4142135623730937
10
-20.999999999999996
20
-13
0
LWPOLYLINE
5
127
100
AcDbEntity
8
0
100
AcDbPolyline
90
4
70
1
43
0.0
10
-28.447085729384874
20
-15.79555495773441
10
-30
20
-10
10
-33.863703305156264
20
-11.035276180410087
10
-32.310789034541145
20
-16.830831138144493
0
LWPOLYLINE
5
128
100
AcDbEntity
8
0
100
AcDbPolyline
90
6
70
1
43
0.0
10
-18.589404136393419
20
-6.9642383454426309
42
-0.82579276412084046
10
-18.403708798216371
20
-6.0000000000000009
10
-6.9999999999999973
20
-5.9999999999999982
42
-0.4142135623730947
10
-5.9999999999999929
20
-6.9999999999999973
10
-5.9999999999999929
20
-10.5229670385731
42
-0.53059845206749934
10
-7.3713906763540926
20
-11.451443729458354
0
CIRCLE
5
129
100
AcDbEntity
8
0
100
AcDbCircle
10
-38.500000000000007
20
0
30
0
40
3.9999999999999991
0
LWPOLYLINE
5
130
100
AcDbEntity
8
0
100
AcDbPolyline
90
6
70
1
43
0.0
10
8.5962912017835968
20
-39
42
-0.82579276412083991
10
8.410595863606547
20
-38.035761654557369
10
19.628609323645868
20
-33.548556270541646
42
-0.53059845206749234
10
20.999999999999975
20
-34.4770329614269
10
20.999999999999979
20
-38
42
-0.41421356237308982
10
19.999999999999972
20
-39
0
LWPOLYLINE
5
131
100
AcDbEntity
8
0
100
AcDbPolyline
90
6
70
1
43
0.0
10
5.9999999999999698
20
-31.999999999999993
42
-0.41421356237309276
10
6.9999999999999751
20
-30.999999999999996
10
18.403708798216346
20
-31
42
-0.82579276412084912
10
18.589404136393398
20
-31.964238345442631
10
7.3713906763540749
20
-36.451443729458354
42
-0.53059845206750111
10
5.9999999999999698
20
-35.5229670385731
0
CIRCLE
5
132
100
AcDbEntity
8
0
100
AcDbCircle
10
27.223611075682051
20
-48.223611075682072
30
0
40
3.9999999999999991
0
LWPOLYLINE
5
133
100
AcDbEntity
8
0
100
AcDbPolyline
90
6
70
1
43
0.0
10
5.9999999999999796
20
-19.499999999999996
42
-0.4142135623730947
10
6.9999999999999858
20
-18.5
10
18.403708798216357
20
-18.5
42
-0.82579276412084102
10
18.589404136393409
20
-19.464238345442631
10
7.3713906763540837
20
-23.951443729458358
42
-0.53059845206750111
10
5.9999999999999796
20
-23.0229670385731
0
LWPOLYLINE
5
134
100
AcDbEntity
8
0
100
AcDbPolyline
90
6
70
1
43
0.0
10
8.5962912017836075
20
-26.500000000000004
42
-0.82579276412083991
10
8.4105958636065559
20
-25.535761654557369
10
19.628609323645879
20
-21.048556270541638
42
-0.53059845206749767
10
20.999999999999986
20
-21.9770329614269
10
20.999999999999986
20
-25.5
42
-0.41421356237309176
10
19.999999999999986
20
-26.500000000000004
0
LWPOLYLINE
5
135
100
AcDbEntity
8
0
100
AcDbPolyline
90
4
70
1
43
0.0
10
29.981417628618455
20
-25.524163574746108
10
26.117714323462184
20
-24.488887394336022
10
24.564800052847062
20
-30.284442352070432
10
28.428503358003336
20
-31.319718532480515
0
LWPOLYLINE
5
136
100
AcDbEntity
8
0
100
AcDbPolyline
90
6
70
1
43
0.0
10
19.62860932364589
20
-8.548556270541642
42
-0.53059845206749423
10
20.999999999999996
20
-9.477032961426902
10
20.999999999999996
20
-12.999999999999998
42
-0.41421356237309437
10
19.999999999999996
20
-14.000000000000002
10
8.5962912017836182
20
-14.000000000000004
42
-0.8257927641208328
10
8.4105958636065701
20
-13.035761654557369
0
LWPOLYLINE
5
137
100
AcDbEntity
8
0
100
AcDbPolyline
90
4
70
1
43
0.0
10
30
20
-10
10
28.447085729384874
20
-15.79555495773441
10
32.310789034541145
20
-16.830831138144493
10
33.863703305156264
20
-11.035276180410087
0
LWPOLYLINE
5
138
100
AcDbEntity
8
0
100
AcDbPolyline
90
6
70
1
43
0.0
10
18.403708798216371
20
-6.0000000000000009
42
-0.82579276412084046
10
18.589404136393419
20
-6.9642383454426309
10
7.3713906763540926
20
-11.451443729458353
42
-0.53059845206750134
10
5.9999999999999911
20
-10.522967038573096
10
5.999999999999992
20
-6.9999999999999973
42
-0.41421356237309437
10
6.9999999999999973
20
-5.9999999999999982
0
LWPOLYLINE
5
139
100
AcDbEntity
8
0
100
AcDbPolyline
90
24
70
1
43
0.0
10
50
20
-4.7879473267248729
10
50
20
4.7879473267248729
42
0.28775951974601033
10
45.479999999999983
20
11.991390947660632
42
-0.48407049176139727
10
38.660461366918703
20
42.615225745752511
42
0.35662963160939676
10
38.634102278197837
20
52.739661957206572
42
0.06212944271460679
10
29.653106287168391
20
61.257835107242059
42
0.46204782018722845
10
17.791863772301049
20
58.470611232882526
42
-0.61066821228234092
10
-17.791863772301038
20
58.470611232882526
42
0.46204782018722829
10
-29.653106287168388
20
61.257835107242059
42
0.062129442714606901
10
-38.634102278197844
20
52.739661957206565
42
0.35662963160939637
10
-38.660461366918703
20
42.615225745752497
42
-0.4840704917613971
10
-45.47999999999999
20
11.991390947660626
42
0.28775951974601011
10
-50
20
4.7879473267248729
10
-49.999999999999993
20
-4.7879473267248702
42
0.28775951974601044
10
-45.479999999999983
20
-11.991390947660632
42
-0.48407049176139727
10
-38.660461366918703
20
-42.615225745752511
42
0.35662963160939676
10
-38.634102278197837
20
-52.739661957206572
42
0.06212944271460679
10
-29.653106287168391
20
-61.257835107242059
42
0.46204782018722845
10
-17.791863772301049
20
-58.470611232882526
42
-0.61066821228234092
10
17.791863772301038
20
-58.470611232882526
42
0.46204782018722829
10
29.653106287168388
20
-61.257835107242059
42
0.062129442714606901
10
38.634102278197844
20
-52.739661957206565
42
0.35662963160939637
10
38.660461366918703
20
-42.615225745752497
42
-0.4840704917613971
10
45.47999999999999
20
-11.991390947660626
42
0.28775951974601011
0
LWPOLYLINE
5
140
100
AcDbEntity
8
0
100
AcDbPolyline
90
6
70
1
43
0.0
10
18.589404136393419
20
6.9642383454426309
42
-0.82579276412084046
10
18.403708798216371
20
6.0000000000000009
10
6.9999999999999973
20
5.9999999999999982
42
-0.4142135623730947
10
5.9999999999999929
20
6.9999999999999973
10
5.999999999999992
20
10.522967038573096
42
-0.53059845206750045
10
7.3713906763540926
20
11.451443729458354
0
LWPOLYLINE
5
141
100
AcDbEntity
8
0
100
AcDbPolyline
90
4
70
1
43
0.0
10
30
20
10
10
28.447085729384874
20
15.79555495773441
10
32.310789034541145
20
16.830831138144493
10
33.863703305156264
20
11.035276180410087
0
LWPOLYLINE
5
142
100
AcDbEntity
8
0
100
AcDbPolyline
90
6
70
1
43
0.0
10
20.999999999999996
20
9.477032961426902
42
-0.53059845206749578
10
19.62860932364589
20
8.548556270541642
10
8.4105958636065683
20
13.035761654557369
42
-0.8257927641208328
10
8.5962912017836182
20
14.000000000000004
10
19.999999999999996
20
14.000000000000002
42
-0.4142135623730937
10
20.999999999999996
20
13
0
LWPOLYLINE
5
143
100
AcDbEntity
8
0
100
AcDbPolyline
90
4
70
1
43
0.0
10
29.981417628618455
20
25.524163574746108
10
26.117714323462184
20
24.488887394336022
10
24.564800052847062
20
30.284442352070432
10
28.428503358003336
20
31.319718532480515
0
LWPOLYLINE
5
144
100
AcDbEntity
8
0
100
AcDbPolyline
90
6
70
1
43
0.0
10
8.4105958636065576
20
25.535761654557373
42
-0.8257927641208328
10
8.5962912017836075
20
26.500000000000004
10
19.999999999999986
20
26.500000000000004
42
-0.41421356237309437
10
20.999999999999986
20
25.5
10
20.999999999999986
20
21.9770329614269
42
-0.53059845206749567
10
19.628609323645879
20
21.048556270541638
0
LWPOLYLINE
5
145
100
AcDbEntity
8
0
100
AcDbPolyline
90
6
70
1
43
0.0
10
6.9999999999999858
20
18.5
42
-0.41421356237309437
10
5.9999999999999805
20
19.499999999999996
10
5.9999999999999796
20
23.0229670385731
42
-0.53059845206750111
10
7.3713906763540837
20
23.951443729458358
10
18.589404136393409
20
19.464238345442631
42
-0.82579276412084102
10
18.403708798216357
20
18.5
0
CIRCLE
5
146
100
AcDbEntity
8
0
100
AcDbCircle
10
27.223611075682051
20
48.223611075682072
30
0
40
3.9999999999999991
0
LWPOLYLINE
5
147
100
AcDbEntity
8
0
100
AcDbPolyline
90
6
70
1
43
0.0
10
6.999999999999976
20
30.999999999999996
42
-0.41421356237309309
10
5.9999999999999689
20
31.999999999999993
10
5.9999999999999698
20
35.5229670385731
42
-0.53059845206750145
10
7.3713906763540749
20
36.451443729458354
10
18.589404136393398
20
31.964238345442631
42
-0.82579276412084179
10
18.403708798216346
20
30.999999999999996
0
LWPOLYLINE
5
148
100
AcDbEntity
8
0
100
AcDbPolyline
90
6
70
1
43
0.0
10
8.4105958636065488
20
38.035761654557369
42
-0.8257927641208328
10
8.5962912017835968
20
39
10
19.999999999999972
20
39
42
-0.41421356237309437
10
20.999999999999975
20
38
10
20.999999999999979
20
34.4770329614269
42
-0.53059845206749501
10
19.628609323645868
20
33.548556270541638
0
CIRCLE
5
149
100
AcDbEntity
8
0
100
AcDbCircle
10
-38.500000000000007
20
0
30
0
40
3.9999999999999991
0
LWPOLYLINE
5
150
100
AcDbEntity
8
0
100
AcDbPolyline
90
6
70
1
43
0.0
10
-8.5962912017835968
20
39
42
-0.82579276412083991
10
-8.410595863606547
20
38.035761654557369
10
-19.628609323645872
20
33.548556270541646
42
-0.53059845206749223
10
-20.999999999999975
20
34.4770329614269
10
-20.999999999999979
20
38
42
-0.41421356237308982
10
-19.999999999999972
20
39
0
LWPOLYLINE
5
151
100
AcDbEntity
8
0
100
AcDbPolyline
90
6
70
1
43
0.0
10
-5.9999999999999698
20
31.999999999999993
42
-0.41421356237309276
10
-6.9999999999999751
20
30.999999999999996
10
-18.403708798216346
20
31
42
-0.8257927641208489
10
-18.589404136393398
20
31.964238345442631
10
-7.371390676354074
20
36.451443729458354
42
-0.53059845206750067
10
-5.9999999999999698
20
35.5229670385731
0
CIRCLE
5
152
100
AcDbEntity
8
0
100
AcDbCircle
10
-27.223611075682051
20
48.223611075682072
30
0
40
3.9999999999999991
0
LWPOLYLINE
5
153
100
AcDbEntity
8
0
100
AcDbPolyline
90
6
70
1
43
0.0
10
-5.9999999999999796
20
19.499999999999996
42
-0.4142135623730947
10
-6.9999999999999858
20
18.5
10
-18.403708798216357
20
18.5
42
-0.82579276412084102
10
-18.589404136393409
20
19.464238345442631
10
-7.3713906763540837
20
23.951443729458358
42
-0.53059845206750111
10
-5.9999999999999796
20
23.0229670385731
0
LWPOLYLINE
5
154
100
AcDbEntity
8
0
100
AcDbPolyline
90
6
70
1
43
0.0
10
-8.5962912017836075
20
26.500000000000004
42
-0.82579276412083991
10
-8.4105958636065559
20
25.535761654557369
10
-19.628609323645879
20
21.048556270541638
42
-0.53059845206749767
10
-20.999999999999986
20
21.9770329614269
10
-20.999999999999986
20
25.5
42
-0.41421356237309176
10
-19.999999999999982
20
26.500000000000004
0
LWPOLYLINE
5
155
100
AcDbEntity
8
0
100
AcDbPolyline
90
4
70
1
43
0.0
10
-26.117714323462184
20
24.488887394336022
10
-29.981417628618455
20
25.524163574746108
10
-28.428503358003336
20
31.319718532480515
10
-24.564800052847062
20
30.284442352070432
0
LWPOLYLINE
5
156
100
AcDbEntity
8
0
100
AcDbPolyline
90
6
70
1
43
0.0
10
-19.62860932364589
20
8.548556270541642
42
-0.53059845206749423
10
-20.999999999999996
20
9.477032961426902
10
-20.999999999999996
20
13
42
-0.4142135623730937
10
-19.999999999999996
20
14.000000000000002
10
-8.5962912017836182
20
14.000000000000002
42
-0.8257927641208328
10
-8.4105958636065701
20
13.035761654557369
0
LWPOLYLINE
5
157
100
AcDbEntity
8
0
100
AcDbPolyline
90
4
70
1
43
0.0
10
-28.447085729384874
20
15.79555495773441
10
-30
20
10
10
-33.863703305156264
20
11.035276180410087
10
-32.310789034541145
20
16.830831138144493
0
LWPOLYLINE
5
158
100
AcDbEntity
8
0
100
AcDbPolyline
90
6
70
1
43
0.0
10
-18.403708798216371
20
6.0000000000000009
42
-0.82579276412084046
10
-18.589404136393419
20
6.9642383454426309
10
-7.3713906763540908
20
11.451443729458353
42
-0.53059845206749967
10
-5.9999999999999911
20
10.5229670385731
10
-5.999999999999992
20
6.9999999999999973
42
-0.41421356237309437
10
-6.9999999999999973
20
5.9999999999999982
0
LWPOLYLINE
5
159
100
AcDbEntity
8
0
100
AcDbPolyline
90
6
70
1
43
0.0
10
-18.589404136393419
20
-6.9642383454426309
42
-0.82579276412084046
10
-18.403708798216371
20
-6.0000000000000009
10
-6.9999999999999973
20
-5.9999999999999982
42
-0.4142135623730947
10
-5.9999999999999929
20
-6.9999999999999973
10
-5.999999999999992
20
-10.522967038573096
42
-0.53059845206750045
10
-7.3713906763540926
20
-11.451443729458354
0
LWPOLYLINE
5
160
100
AcDbEntity
8
0
100
AcDbPolyline
90
4
70
1
43
0.0
10
-30
20
-10
10
-28.447085729384874
20
-15.79555495773441
10
-32.310789034541145
20
-16.830831138144493
10
-33.863703305156264
20
-11.035276180410087
0
LWPOLYLINE
5
161
100
AcDbEntity
8
0
100
AcDbPolyline
90
6
70
1
43
0.0
10
-20.999999999999996
20
-9.477032961426902
42
-0.53059845206749578
10
-19.62860932364589
20
-8.548556270541642
10
-8.4105958636065683
20
-13.035761654557369
42
-0.8257927641208328
10
-8.5962912017836182
20
-14.000000000000004
10
-19.999999999999996
20
-14.000000000000002
42
-0.4142135623730937
10
-20.999999999999996
20
-13
0
LWPOLYLINE
5
162
100
AcDbEntity
8
0
100
AcDbPolyline
90
4
70
1
43
0.0
10
-29.981417628618455
20
-25.524163574746108
10
-26.117714323462184
20
-24.488887394336022
10
-24.564800052847062
20
-30.284442352070432
10
-28.428503358003336
20
-31.319718532480515
0
LWPOLYLINE
5
163
100
AcDbEntity
8
0
100
AcDbPolyline
90
6
70
1
43
0.0
10
-8.4105958636065576
20
-25.535761654557373
42
-0.8257927641208328
10
-8.5962912017836075
20
-26.500000000000004
10
-19.999999999999986
20
-26.500000000000004
42
-0.41421356237309437
10
-20.999999999999986
20
-25.5
10
-20.999999999999986
20
-21.9770329614269
42
-0.53059845206749567
10
-19.628609323645879
20
-21.048556270541638
0
LWPOLYLINE
5
164
100
AcDbEntity
8
0
100
AcDbPolyline
90
6
70
1
43
0.0
10
-6.9999999999999858
20
-18.5
42
-0.41421356237309437
10
-5.9999999999999805
20
-19.499999999999996
10
-5.9999999999999796
20
-23.0229670385731
42
-0.53059845206750111
10
-7.3713906763540837
20
-23.951443729458358
10
-18.589404136393409
20
-19.464238345442631
42
-0.82579276412084102
10
-18.403708798216357
20
-18.5
0
CIRCLE
5
165
100
AcDbEntity
8
0
100
AcDbCircle
10
-27.223611075682051
20
-48.223611075682072
30
0
40
3.9999999999999991
0
LWPOLYLINE
5
166
100
AcDbEntity
8
0
100
AcDbPolyline
90
6
70
1
43
0.0
10
-6.999999999999976
20
-30.999999999999996
42
-0.41421356237309309
10
-5.9999999999999689
20
-31.999999999999993
10
-5.9999999999999698
20
-35.5229670385731
42
-0.53059845206750145
10
-7.3713906763540749
20
-36.451443729458354
10
-18.589404136393398
20
-31.964238345442631
42
-0.82579276412084179
10
-18.403708798216346
20
-30.999999999999996
0
LWPOLYLINE
5
167
100
AcDbEntity
8
0
100
AcDbPolyline
90
6
70
1
43
0.0
10
-8.4105958636065488
20
-38.035761654557369
42
-0.8257927641208328
10
-8.5962912017835968
20
-39
10
-19.999999999999972
20
-39
42
-0.41421356237309437
10
-20.999999999999975
20
-38
10
-20.999999999999979
20
-34.4770329614269
42
-0.53059845206749501
10
-19.628609323645868
20
-33.548556270541638
0
CIRCLE
5
168
100
AcDbEntity
8
0
100
AcDbCircle
10
38.500000000000007
20
0
30
0
40
3.9999999999999991
0
LWPOLYLINE
5
169
100
AcDbEntity
8
0
100
AcDbPolyline
90
6
70
1
43
0.0
10
18.403708798216371
20
-6.0000000000000009
42
-0.82579276412084046
10
18.589404136393419
20
-6.9642383454426309
10
7.3713906763540908
20
-11.451443729458353
42
-0.53059845206749967
10
5.9999999999999911
20
-10.5229670385731
10
5.999999999999992
20
-6.9999999999999973
42
-0.41421356237309437
10
6.9999999999999973
20
-5.9999999999999982
0
LWPOLYLINE
5
170
100
AcDbEntity
8
0
100
AcDbPolyline
90
4
70
1
43
0.0
10
28.447085729384874
20
-15.79555495773441
10
30
20
-10
10
33.863703305156264
20
-11.035276180410087
10
32.310789034541145
20
-16.830831138144493
0
LWPOLYLINE
5
171
100
AcDbEntity
8
0
100
AcDbPolyline
90
6
70
1
43
0.0
10
19.62860932364589
20
-8.548556270541642
42
-0.53059845206749423
10
20.999999999999996
20
-9.477032961426902
10
20.999999999999996
20
-13
42
-0.4142135623730937
10
19.999999999999996
20
-14.000000000000002
10
8.5962912017836182
20
-14.000000000000002
42
-0.8257927641208328
10
8.4105958636065701
20
-13.035761654557369
0
LWPOLYLINE
5
172
100
AcDbEntity
8
0
100
AcDbPolyline
90
4
70
1
43
0.0
10
26.117714323462184
20
-24.488887394336022
10
29.981417628618455
20
-25.524163574746108
10
28.428503358003336
20
-31.319718532480515
10
24.564800052847062
20
-30.284442352070432
0
LWPOLYLINE
5
173
100
AcDbEntity
8
0
100
AcDbPolyline
90
6
70
1
43
0.0
10
8.5962912017836075
20
-26.500000000000004
42
-0.82579276412083991
10
8.4105958636065559
20
-25.535761654557369
10
19.628609323645879
20
-21.048556270541638
42
-0.53059845206749767
10
20.999999999999986
20
-21.9770329614269
10
20.999999999999986
20
-25.5
42
-0.41421356237309176
10
19.999999999999982
20
-26.500000000000004
0
LWPOLYLINE
5
174
100
AcDbEntity
8
0
100
AcDbPolyline
90
6
70
1
43
0.0
10
5.9999999999999796
20
-19.499999999999996
42
-0.4142135623730947
10
6.9999999999999858
20
-18.5
10
18.403708798216357
20
-18.5
42
-0.82579276412084102
10
18.589404136393409
20
-19.464238345442631
10
7.3713906763540837
20
-23.951443729458358
42
-0.53059845206750111
10
5.9999999999999796
20
-23.0229670385731
0
CIRCLE
5
175
100
AcDbEntity
8
0
100
AcDbCircle
10
27.223611075682051
20
-48.223611075682072
30
0
40
3.9999999999999991
0
LWPOLYLINE
5
176
100
AcDbEntity
8
0
100
AcDbPolyline
90
6
70
1
43
0.0
10
5.9999999999999698
20
-31.999999999999993
42
-0.41421356237309276
10
6.9999999999999751
20
-30.999999999999996
10
18.403708798216346
20
-31
42
-0.8257927641208489
10
18.589404136393398
20
-31.964238345442631
10
7.371390676354074
20
-36.451443729458354
42
-0.53059845206750067
10
5.9999999999999698
20
-35.5229670385731
0
LWPOLYLINE
5
177
100
AcDbEntity
8
0
100
AcDbPolyline
90
6
70
1
43
0.0
10
8.5962912017835968
20
-39
42
-0.82579276412083991
10
8.410595863606547
20
-38.035761654557369
10
19.628609323645872
20
-33.548556270541646
42
-0.53059845206749223
10
20.999999999999975
20
-34.4770329614269
10
20.999999999999979
20
-38
42
-0.41421356237308982
10
19.999999999999972
20
-39
0
ENDSEC
0
SECTION
2
OBJECTS
0
DICTIONARY
5
C
100
AcDbDictionary
3
ACAD_GROUP
350
D
3
ACAD_MLINESTYLE
350
17
0
DICTIONARY
5
D
100
AcDbDictionary
0
DICTIONARY
5
1A
330
C
100
AcDbDictionary
0
DICTIONARY
5
17
100
AcDbDictionary
0
ENDSEC
0
EOF
