0
SECTION
2
HEADER
9
$INSUNITS
70
4
9
$ACADVER
1
AC1014
9
$HANDSEED
5
FFFF
0
ENDSEC
0
SECTION
2
TABLES
0
TABLE
2
VPORT
5
8
100
AcDbSymbolTable
0
ENDTAB
0
TABLE
2
LTYPE
5
5
100
AcDbSymbolTable
0
LTYPE
5
14
100
AcDbSymbolTableRecord
100
AcDbLinetypeTableRecord
2
BYBLOCK
70
0
0
LTYPE
5
15
100
AcDbSymbolTableRecord
100
AcDbLinetypeTableRecord
2
BYLAYER
70
0
0
ENDTAB
0
TABLE
2
LAYER
5
2
100
AcDbSymbolTable
70
2
0
LAYER
5
50
100
AcDbSymbolTableRecord
100
AcDbLayerTableRecord
2
0
70
0
6
CONTINUOUS
0
ENDTAB
0
TABLE
2
STYLE
5
3
100
AcDbSymbolTable
70
1
0
STYLE
5
11
100
AcDbSymbolTableRecord
100
AcDbTextStyleTableRecord
2
STANDARD
70
0
0
ENDTAB
0
TABLE
2
VIEW
5
6
100
AcDbSymbolTable
70
0
0
ENDTAB
0
TABLE
2
UCS
5
7
100
AcDbSymbolTable
70
0
0
ENDTAB
0
TABLE
2
APPID
5
9
100
AcDbSymbolTable
70
2
0
APPID
5
12
100
AcDbSymbolTableRecord
100
AcDbRegAppTableRecord
2
ACAD
70
0
0
ENDTAB
0
TABLE
2
DIMSTYLE
5
A
100
AcDbSymbolTable
70
1
0
ENDTAB
0
TABLE
2
BLOCK_RECORD
5
1
100
AcDbSymbolTable
70
1
0
BLOCK_RECORD
5
1F
100
AcDbSymbolTableRecord
100
AcDbBlockTableRecord
2
*MODEL_SPACE
0
BLOCK_RECORD
5
1B
100
AcDbSymbolTableRecord
100
AcDbBlockTableRecord
2
*PAPER_SPACE
0
ENDTAB
0
ENDSEC
0
SECTION
2
BLOCKS
0
BLOCK
5
20
100
AcDbEntity
100
AcDbBlockBegin
2
*MODEL_SPACE
0
ENDBLK
5
21
100
AcDbEntity
100
AcDbBlockEnd
0
BLOCK
5
1C
100
AcDbEntity
100
AcDbBlockBegin
2
*PAPER_SPACE
0
ENDBLK
5
1D
100
AcDbEntity
100
AcDbBlockEnd
0
ENDSEC
0
SECTION
2
ENTITIES
0
LWPOLYLINE
5
100
100
AcDbEntity
8
0
100
AcDbPolyline
90
24
70
1
43
0.0
10
17.791863772301046
20
58.470611232882526
42
-0.61066821228234214
10
-17.79186377230106
20
58.470611232882575
42
0.46204782018722595
10
-29.653106287168406
20
61.25783510724208
42
0.061365494732623961
10
-38.537302010319415
20
52.857124066139903
42
0.35877099040643395
10
-38.556127157994204
20
42.68570301111253
42
-0.48745730090477174
10
-45.433745951802543
20
11.935983845902438
42
0.28949584754572388
10
-49.999999999999986
20
4.7103773842634169
10
-50.000000000000007
20
-4.7103773842634178
42
0.28949584754572427
10
-45.433745951802536
20
-11.935983845902445
42
-0.48745730090477141
10
-38.556127157994197
20
-42.685703011112523
42
0.35877099040643395
10
-38.537302010319422
20
-52.857124066139903
42
0.061365494732622698
10
-29.653106287168374
20
-61.257835107242109
42
0.46204782018722751
10
-17.791863772301049
20
-58.470611232882533
42
-0.61066821228234225
10
17.79186377230106
20
-58.470611232882575
42
0.46204782018722595
10
29.653106287168395
20
-61.25783510724208
42
0.061365494732623732
10
38.537302010319415
20
-52.857124066139903
42
0.35877099040643395
10
38.556127157994204
20
-42.68570301111253
42
-0.48745730090477174
10
45.433745951802543
20
-11.935983845902438
42
0.28949584754572388
10
49.999999999999986
20
-4.7103773842634169
10
50.000000000000007
20
4.7103773842634178
42
0.28949584754572427
10
45.433745951802536
20
11.935983845902445
42
-0.48745730090477141
10
38.556127157994197
20
42.685703011112523
42
0.35877099040643395
10
38.537302010319408
20
52.857124066139903
42
0.061365494732624072
10
29.653106287168374
20
61.257835107242109
42
0.46204782018722784
0
CIRCLE
5
101
100
AcDbEntity
8
0
100
AcDbCircle
10
19.900000000000045
20
0
30
0
40
1.5000000000000013
0
LWPOLYLINE
5
102
100
AcDbEntity
8
0
100
AcDbPolyline
90
4
70
1
43
0.0
10
21.900000000000045
20
6.2000000000000011
10
21.900000000000045
20
-6.2000000000000011
10
44.500000000000043
20
-6.2000000000000011
10
44.500000000000043
20
6.2000000000000011
0
CIRCLE
5
103
100
AcDbEntity
8
0
100
AcDbCircle
10
46.500000000000028
20
0
30
0
40
1.5000000000000036
0
CIRCLE
5
104
100
AcDbEntity
8
0
100
AcDbCircle
10
14.071424945612279
20
35.0714249456123
30
0
40
1.4999999999999991
0
LWPOLYLINE
5
105
100
AcDbEntity
8
0
100
AcDbPolyline
90
4
70
1
43
0.0
10
26.117714323462202
20
24.488887394336029
10
29.981417628618495
20
25.524163574746126
10
28.428503358003361
20
31.31971853248054
10
24.564800052847097
20
30.284442352070442
0
LWPOLYLINE
5
106
100
AcDbEntity
8
0
100
AcDbPolyline
90
4
70
1
43
0.0
10
30
20
10
10
33.863703305156292
20
11.035276180410097
10
32.310789034541159
20
16.830831138144511
10
28.447085729384895
20
15.795554957734417
0
CIRCLE
5
107
100
AcDbEntity
8
0
100
AcDbCircle
10
32.880465325174448
20
53.88046532517447
30
0
40
1.4999999999999991
0
LWPOLYLINE
5
108
100
AcDbEntity
8
0
100
AcDbPolyline
90
4
70
1
43
0.0
10
11.101576464628804
20
40.869700551341978
10
19.869700551341971
20
32.101576464628806
10
35.850313806157935
20
48.082189719444784
10
27.08218971944477
20
56.850313806157985
0
CIRCLE
5
109
100
AcDbEntity
8
0
100
AcDbCircle
10
9.2500000000000018
20
27.750000000000004
30
0
40
1.5000000000000002
0
CIRCLE
5
110
100
AcDbEntity
8
0
100
AcDbCircle
10
-19.900000000000045
20
0
30
0
40
1.5000000000000013
0
LWPOLYLINE
5
111
100
AcDbEntity
8
0
100
AcDbPolyline
90
4
70
1
43
0.0
10
-21.900000000000045
20
-6.2000000000000011
10
-21.900000000000045
20
6.2000000000000011
10
-44.500000000000043
20
6.2000000000000011
10
-44.500000000000043
20
-6.2000000000000011
0
CIRCLE
5
112
100
AcDbEntity
8
0
100
AcDbCircle
10
-46.500000000000028
20
0
30
0
40
1.5000000000000036
0
CIRCLE
5
113
100
AcDbEntity
8
0
100
AcDbCircle
10
-9.2500000000000018
20
27.750000000000004
30
0
40
1.5000000000000002
0
LWPOLYLINE
5
114
100
AcDbEntity
8
0
100
AcDbPolyline
90
4
70
1
43
0.0
10
-19.869700551341971
20
32.101576464628806
10
-11.101576464628804
20
40.869700551341978
10
-27.08218971944477
20
56.850313806157985
10
-35.850313806157935
20
48.082189719444784
0
CIRCLE
5
115
100
AcDbEntity
8
0
100
AcDbCircle
10
-32.880465325174448
20
53.88046532517447
30
0
40
1.4999999999999991
0
LWPOLYLINE
5
116
100
AcDbEntity
8
0
100
AcDbPolyline
90
4
70
1
43
0.0
10
-33.863703305156292
20
11.035276180410097
10
-30
20
10
10
-28.447085729384895
20
15.795554957734417
10
-32.310789034541159
20
16.830831138144511
0
LWPOLYLINE
5
117
100
AcDbEntity
8
0
100
AcDbPolyline
90
4
70
1
43
0.0
10
-29.981417628618495
20
25.524163574746126
10
-26.117714323462202
20
24.488887394336029
10
-24.564800052847097
20
30.284442352070442
10
-28.428503358003361
20
31.31971853248054
0
CIRCLE
5
118
100
AcDbEntity
8
0
100
AcDbCircle
10
-14.071424945612279
20
35.0714249456123
30
0
40
1.4999999999999991
0
LWPOLYLINE
5
119
100
AcDbEntity
8
0
100
AcDbPolyline
90
4
70
1
43
0.0
10
-7.9999999999999911
20
-10
10
-7.9999999999999911
20
10
10
-11.999999999999991
20
10
10
-11.999999999999991
20
-10
0
CIRCLE
5
120
100
AcDbEntity
8
0
100
AcDbCircle
10
-9.2500000000000018
20
-27.750000000000004
30
0
40
1.5000000000000002
0
LWPOLYLINE
5
121
100
AcDbEntity
8
0
100
AcDbPolyline
90
4
70
1
43
0.0
10
-11.101576464628804
20
-40.869700551341978
10
-19.869700551341971
20
-32.101576464628806
10
-35.850313806157935
20
-48.082189719444784
10
-27.08218971944477
20
-56.850313806157985
0
CIRCLE
5
122
100
AcDbEntity
8
0
100
AcDbCircle
10
-32.880465325174448
20
-53.88046532517447
30
0
40
1.4999999999999991
0
LWPOLYLINE
5
123
100
AcDbEntity
8
0
100
AcDbPolyline
90
4
70
1
43
0.0
10
-30
20
-10
10
-33.863703305156292
20
-11.035276180410097
10
-32.310789034541159
20
-16.830831138144511
10
-28.447085729384895
20
-15.795554957734417
0
LWPOLYLINE
5
124
100
AcDbEntity
8
0
100
AcDbPolyline
90
4
70
1
43
0.0
10
-26.117714323462202
20
-24.488887394336029
10
-29.981417628618495
20
-25.524163574746126
10
-28.428503358003361
20
-31.31971853248054
10
-24.564800052847097
20
-30.284442352070442
0
CIRCLE
5
125
100
AcDbEntity
8
0
100
AcDbCircle
10
-14.071424945612279
20
-35.0714249456123
30
0
40
1.4999999999999991
0
LWPOLYLINE
5
126
100
AcDbEntity
8
0
100
AcDbPolyline
90
4
70
1
43
0.0
10
7.9999999999999911
20
10
10
7.9999999999999911
20
-10
10
11.999999999999991
20
-10
10
11.999999999999991
20
10
0
CIRCLE
5
127
100
AcDbEntity
8
0
100
AcDbCircle
10
14.071424945612279
20
-35.0714249456123
30
0
40
1.4999999999999991
0
LWPOLYLINE
5
128
100
AcDbEntity
8
0
100
AcDbPolyline
90
4
70
1
43
0.0
10
29.981417628618495
20
-25.524163574746126
10
26.117714323462202
20
-24.488887394336029
10
24.564800052847097
20
-30.284442352070442
10
28.428503358003361
20
-31.31971853248054
0
LWPOLYLINE
5
129
100
AcDbEntity
8
0
100
AcDbPolyline
90
4
70
1
43
0.0
10
33.863703305156292
20
-11.035276180410097
10
30
20
-10
10
28.447085729384895
20
-15.795554957734417
10
32.310789034541159
20
-16.830831138144511
0
CIRCLE
5
130
100
AcDbEntity
8
0
100
AcDbCircle
10
32.880465325174448
20
-53.88046532517447
30
0
40
1.4999999999999991
0
LWPOLYLINE
5
131
100
AcDbEntity
8
0
100
AcDbPolyline
90
4
70
1
43
0.0
10
19.869700551341971
20
-32.101576464628806
10
11.101576464628804
20
-40.869700551341978
10
27.08218971944477
20
-56.850313806157985
10
35.850313806157935
20
-48.082189719444784
0
CIRCLE
5
132
100
AcDbEntity
8
0
100
AcDbCircle
10
9.2500000000000018
20
-27.750000000000004
30
0
40
1.5000000000000002
0
LWPOLYLINE
5
133
100
AcDbEntity
8
0
100
AcDbPolyline
90
4
70
1
43
0.0
10
7.9999999999999911
20
-10
10
7.9999999999999911
20
10
10
11.999999999999991
20
10
10
11.999999999999991
20
-10
0
LWPOLYLINE
5
134
100
AcDbEntity
8
0
100
AcDbPolyline
90
4
70
1
43
0.0
10
21.900000000000045
20
-6.2000000000000011
10
21.900000000000045
20
6.2000000000000011
10
44.500000000000043
20
6.2000000000000011
10
44.500000000000043
20
-6.2000000000000011
0
CIRCLE
5
135
100
AcDbEntity
8
0
100
AcDbCircle
10
46.500000000000028
20
0
30
0
40
1.5000000000000036
0
LWPOLYLINE
5
136
100
AcDbEntity
8
0
100
AcDbPolyline
90
24
70
1
43
0.0
10
17.791863772301038
20
58.470611232882533
42
-0.61066821228234192
10
-17.791863772301056
20
58.470611232882575
42
0.4620478201872264
10
-29.653106287168395
20
61.25783510724208
42
0.061365494732623732
10
-38.537302010319415
20
52.857124066139903
42
0.35877099040643384
10
-38.556127157994197
20
42.68570301111253
42
-0.48745730090477157
10
-45.433745951802536
20
11.935983845902438
42
0.28949584754572305
10
-50.000000000000007
20
4.7103773842634178
10
-49.999999999999993
20
-4.7103773842634169
42
0.28949584754572272
10
-45.43374595180255
20
-11.93598384590244
42
-0.48745730090477174
10
-38.556127157994197
20
-42.685703011112523
42
0.35877099040643379
10
-38.537302010319415
20
-52.857124066139903
42
0.061365494732623843
10
-29.653106287168395
20
-61.25783510724208
42
0.4620478201872284
10
-17.791863772301046
20
-58.470611232882547
42
-0.61066821228234114
10
17.791863772301042
20
-58.470611232882533
42
0.46204782018722806
10
29.653106287168395
20
-61.257835107242101
42
0.061365494732623732
10
38.537302010319415
20
-52.857124066139903
42
0.35877099040643384
10
38.556127157994197
20
-42.68570301111253
42
-0.48745730090477157
10
45.433745951802536
20
-11.935983845902438
42
0.28949584754572305
10
50.000000000000007
20
-4.7103773842634178
10
49.999999999999993
20
4.7103773842634169
42
0.28949584754572272
10
45.43374595180255
20
11.93598384590244
42
-0.48745730090477174
10
38.556127157994197
20
42.685703011112523
42
0.35877099040643379
10
38.537302010319415
20
52.857124066139903
42
0.061365494732622351
10
29.653106287168395
20
61.25783510724208
42
0.4620478201872284
0
CIRCLE
5
137
100
AcDbEntity
8
0
100
AcDbCircle
10
9.2500000000000018
20
27.750000000000004
30
0
40
1.5000000000000002
0
LWPOLYLINE
5
138
100
AcDbEntity
8
0
100
AcDbPolyline
90
4
70
1
43
0.0
10
19.869700551341971
20
32.101576464628806
10
11.101576464628804
20
40.869700551341978
10
27.08218971944477
20
56.850313806157985
10
35.850313806157935
20
48.082189719444784
0
CIRCLE
5
139
100
AcDbEntity
8
0
100
AcDbCircle
10
32.880465325174448
20
53.88046532517447
30
0
40
1.4999999999999991
0
LWPOLYLINE
5
140
100
AcDbEntity
8
0
100
AcDbPolyline
90
4
70
1
43
0.0
10
33.863703305156292
20
11.035276180410099
10
30
20
10
10
28.447085729384895
20
15.795554957734417
10
32.310789034541159
20
16.830831138144511
0
LWPOLYLINE
5
141
100
AcDbEntity
8
0
100
AcDbPolyline
90
4
70
1
43
0.0
10
29.981417628618495
20
25.524163574746126
10
26.117714323462202
20
24.488887394336029
10
24.564800052847097
20
30.284442352070442
10
28.428503358003361
20
31.31971853248054
0
CIRCLE
5
142
100
AcDbEntity
8
0
100
AcDbCircle
10
14.071424945612279
20
35.0714249456123
30
0
40
1.4999999999999991
0
LWPOLYLINE
5
143
100
AcDbEntity
8
0
100
AcDbPolyline
90
4
70
1
43
0.0
10
-21.900000000000045
20
6.2000000000000011
10
-21.900000000000045
20
-6.2000000000000011
10
-44.500000000000043
20
-6.2000000000000011
10
-44.500000000000043
20
6.2000000000000011
0
CIRCLE
5
144
100
AcDbEntity
8
0
100
AcDbCircle
10
-46.500000000000028
20
0
30
0
40
1.5000000000000036
0
CIRCLE
5
145
100
AcDbEntity
8
0
100
AcDbCircle
10
19.900000000000045
20
0
30
0
40
1.5000000000000013
0
CIRCLE
5
146
100
AcDbEntity
8
0
100
AcDbCircle
10
-14.071424945612279
20
35.0714249456123
30
0
40
1.4999999999999991
0
LWPOLYLINE
5
147
100
AcDbEntity
8
0
100
AcDbPolyline
90
4
70
1
43
0.0
10
-26.117714323462202
20
24.488887394336029
10
-29.981417628618495
20
25.524163574746126
10
-28.428503358003361
20
31.31971853248054
10
-24.564800052847097
20
30.284442352070442
0
LWPOLYLINE
5
148
100
AcDbEntity
8
0
100
AcDbPolyline
90
4
70
1
43
0.0
10
-30
20
10
10
-33.863703305156292
20
11.035276180410099
10
-32.310789034541159
20
16.830831138144511
10
-28.447085729384895
20
15.795554957734417
0
CIRCLE
5
149
100
AcDbEntity
8
0
100
AcDbCircle
10
-32.880465325174448
20
53.88046532517447
30
0
40
1.4999999999999991
0
LWPOLYLINE
5
150
100
AcDbEntity
8
0
100
AcDbPolyline
90
4
70
1
43
0.0
10
-11.101576464628804
20
40.869700551341978
10
-19.869700551341971
20
32.101576464628806
10
-35.850313806157935
20
48.082189719444784
10
-27.08218971944477
20
56.850313806157985
0
CIRCLE
5
151
100
AcDbEntity
8
0
100
AcDbCircle
10
-9.2500000000000018
20
27.750000000000004
30
0
40
1.5000000000000002
0
CIRCLE
5
152
100
AcDbEntity
8
0
100
AcDbCircle
10
-14.071424945612279
20
-35.0714249456123
30
0
40
1.4999999999999991
0
LWPOLYLINE
5
153
100
AcDbEntity
8
0
100
AcDbPolyline
90
4
70
1
43
0.0
10
-29.981417628618495
20
-25.524163574746126
10
-26.117714323462202
20
-24.488887394336029
10
-24.564800052847097
20
-30.284442352070442
10
-28.428503358003361
20
-31.31971853248054
0
LWPOLYLINE
5
154
100
AcDbEntity
8
0
100
AcDbPolyline
90
4
70
1
43
0.0
10
-33.863703305156292
20
-11.035276180410099
10
-30
20
-10
10
-28.447085729384895
20
-15.795554957734417
10
-32.310789034541159
20
-16.830831138144511
0
CIRCLE
5
155
100
AcDbEntity
8
0
100
AcDbCircle
10
-32.880465325174448
20
-53.88046532517447
30
0
40
1.4999999999999991
0
LWPOLYLINE
5
156
100
AcDbEntity
8
0
100
AcDbPolyline
90
4
70
1
43
0.0
10
-19.869700551341971
20
-32.101576464628806
10
-11.101576464628804
20
-40.869700551341978
10
-27.08218971944477
20
-56.850313806157985
10
-35.850313806157935
20
-48.082189719444784
0
CIRCLE
5
157
100
AcDbEntity
8
0
100
AcDbCircle
10
-9.2500000000000018
20
-27.750000000000004
30
0
40
1.5000000000000002
0
LWPOLYLINE
5
158
100
AcDbEntity
8
0
100
AcDbPolyline
90
4
70
1
43
0.0
10
-7.9999999999999911
20
10
10
-7.9999999999999911
20
-10
10
-11.999999999999991
20
-10
10
-11.999999999999991
20
10
0
CIRCLE
5
159
100
AcDbEntity
8
0
100
AcDbCircle
10
-19.900000000000045
20
0
30
0
40
1.5000000000000013
0
CIRCLE
5
160
100
AcDbEntity
8
0
100
AcDbCircle
10
9.2500000000000018
20
-27.750000000000004
30
0
40
1.5000000000000002
0
LWPOLYLINE
5
161
100
AcDbEntity
8
0
100
AcDbPolyline
90
4
70
1
43
0.0
10
11.101576464628804
20
-40.869700551341978
10
19.869700551341971
20
-32.101576464628806
10
35.850313806157935
20
-48.082189719444784
10
27.08218971944477
20
-56.850313806157985
0
CIRCLE
5
162
100
AcDbEntity
8
0
100
AcDbCircle
10
32.880465325174448
20
-53.88046532517447
30
0
40
1.4999999999999991
0
LWPOLYLINE
5
163
100
AcDbEntity
8
0
100
AcDbPolyline
90
4
70
1
43
0.0
10
30
20
-10
10
33.863703305156292
20
-11.035276180410099
10
32.310789034541159
20
-16.830831138144511
10
28.447085729384895
20
-15.795554957734417
0
LWPOLYLINE
5
164
100
AcDbEntity
8
0
100
AcDbPolyline
90
4
70
1
43
0.0
10
26.117714323462202
20
-24.488887394336029
10
29.981417628618495
20
-25.524163574746126
10
28.428503358003361
20
-31.31971853248054
10
24.564800052847097
20
-30.284442352070442
0
CIRCLE
5
165
100
AcDbEntity
8
0
100
AcDbCircle
10
14.071424945612279
20
-35.0714249456123
30
0
40
1.4999999999999991
0
ENDSEC
0
SECTION
2
OBJECTS
0
DICTIONARY
5
C
100
AcDbDictionary
3
ACAD_GROUP
350
D
3
ACAD_MLINESTYLE
350
17
0
DICTIONARY
5
D
100
AcDbDictionary
0
DICTIONARY
5
1A
330
C
100
AcDbDictionary
0
DICTIONARY
5
17
100
AcDbDictionary
0
ENDSEC
0
EOF
