0
SECTION
2
HEADER
9
$INSUNITS
70
4
9
$ACADVER
1
AC1014
9
$HANDSEED
5
FFFF
0
ENDSEC
0
SECTION
2
TABLES
0
TABLE
2
VPORT
5
8
100
AcDbSymbolTable
0
ENDTAB
0
TABLE
2
LTYPE
5
5
100
AcDbSymbolTable
0
LTYPE
5
14
100
AcDbSymbolTableRecord
100
AcDbLinetypeTableRecord
2
BYBLOCK
70
0
0
LTYPE
5
15
100
AcDbSymbolTableRecord
100
AcDbLinetypeTableRecord
2
BYLAYER
70
0
0
ENDTAB
0
TABLE
2
LAYER
5
2
100
AcDbSymbolTable
70
2
0
LAYER
5
50
100
AcDbSymbolTableRecord
100
AcDbLayerTableRecord
2
0
70
0
6
CONTINUOUS
0
ENDTAB
0
TABLE
2
STYLE
5
3
100
AcDbSymbolTable
70
1
0
STYLE
5
11
100
AcDbSymbolTableRecord
100
AcDbTextStyleTableRecord
2
STANDARD
70
0
0
ENDTAB
0
TABLE
2
VIEW
5
6
100
AcDbSymbolTable
70
0
0
ENDTAB
0
TABLE
2
UCS
5
7
100
AcDbSymbolTable
70
0
0
ENDTAB
0
TABLE
2
APPID
5
9
100
AcDbSymbolTable
70
2
0
APPID
5
12
100
AcDbSymbolTableRecord
100
AcDbRegAppTableRecord
2
ACAD
70
0
0
ENDTAB
0
TABLE
2
DIMSTYLE
5
A
100
AcDbSymbolTable
70
1
0
ENDTAB
0
TABLE
2
BLOCK_RECORD
5
1
100
AcDbSymbolTable
70
1
0
BLOCK_RECORD
5
1F
100
AcDbSymbolTableRecord
100
AcDbBlockTableRecord
2
*MODEL_SPACE
0
BLOCK_RECORD
5
1B
100
AcDbSymbolTableRecord
100
AcDbBlockTableRecord
2
*PAPER_SPACE
0
ENDTAB
0
ENDSEC
0
SECTION
2
BLOCKS
0
BLOCK
5
20
100
AcDbEntity
100
AcDbBlockBegin
2
*MODEL_SPACE
0
ENDBLK
5
21
100
AcDbEntity
100
AcDbBlockEnd
0
BLOCK
5
1C
100
AcDbEntity
100
AcDbBlockBegin
2
*PAPER_SPACE
0
ENDBLK
5
1D
100
AcDbEntity
100
AcDbBlockEnd
0
ENDSEC
0
SECTION
2
ENTITIES
0
LWPOLYLINE
5
100
100
AcDbEntity
8
0
100
AcDbPolyline
90
4
70
1
43
0.0
10
12.510020080402253
20
2.6000000000000014
10
-0.095449465799618979
20
1.9977210514680399
42
0.95336159810740717
10
-0.09544946579962188
20
-1.9977210514680397
10
12.510020080402253
20
-2.6000000000000001
42
2.3422999690760555
0
LWPOLYLINE
5
101
100
AcDbEntity
8
0
100
AcDbPolyline
90
4
70
1
43
0.0
10
-5.0000000000000089
20
-1.9999999999999987
10
-5.0000000000000089
20
2.0000000000000013
10
-11.000000000000011
20
2.0000000000000013
10
-11.000000000000011
20
-1.9999999999999987
0
LWPOLYLINE
5
102
100
AcDbEntity
8
0
100
AcDbPolyline
90
4
70
1
43
0.0
10
-15.000000000000011
20
2.0000000000000018
10
-21.000000000000014
20
2.0000000000000022
10
-21.000000000000014
20
-1.9999999999999993
10
-15.000000000000021
20
-1.9999999999999984
0
LWPOLYLINE
5
103
100
AcDbEntity
8
0
100
AcDbPolyline
90
16
70
1
43
0.0
10
-19.000000000000018
20
6.0568010000000001
10
-2.2802472936889053
20
6.0568010000000001
42
0.1970546000403231
10
3.3360117794258173
20
8.3596408281550296
10
2.6639882205741703
20
7.6971601718449687
42
-0.19705460004032296
10
8.2802472936888982
20
10
10
15.000000000000009
20
10.000000000000004
42
-0.41421356237309503
10
23.000000000000007
20
2.0000000000000062
10
23.000000000000004
20
-1.9999999999999933
42
-0.41421356237309503
10
15.000000000000004
20
-9.9999999999999929
10
8.2802472604663926
20
-9.9999999999999947
42
-0.19705459819374527
10
2.6639882278597051
20
-7.6971602117777671
10
3.3360117721402904
20
-8.3596408443019623
42
0.19705459819374613
10
-2.280247260466397
20
-6.0568010560797347
10
-19
20
-6.0568010560797303
42
-0.41421356237309548
10
-23
20
-2.0568010560797343
10
-23.000000000000021
20
2.0568010000000001
42
-0.41421356237309537
0
LWPOLYLINE
5
104
100
AcDbEntity
8
0
100
AcDbPolyline
90
16
70
1
43
0.0
10
-2.280247293688904
20
6.0568010000000001
10
-19.000000000000018
20
6.0568010000000001
42
0.41421356237309537
10
-23.000000000000021
20
2.056801000000001
10
-23
20
-2.0568010560797325
42
0.41421356237309553
10
-19
20
-6.0568010560797303
10
-2.280247260466401
20
-6.0568010560797338
42
-0.19705459819374621
10
3.3360117721402887
20
-8.3596408443019605
10
2.6639882278597038
20
-7.6971602117777662
42
0.19705459819374546
10
8.2802472604663961
20
-9.9999999999999964
10
15.000000000000002
20
-9.9999999999999929
42
0.41421356237309509
10
23.000000000000004
20
-1.9999999999999951
10
23.000000000000007
20
2.0000000000000053
42
0.41421356237309509
10
15.000000000000009
20
10.000000000000004
10
8.2802472936888982
20
10
42
0.19705460004032299
10
2.6639882205741716
20
7.6971601718449705
10
3.3360117794258191
20
8.3596408281550332
42
-0.19705460004032296
0
LWPOLYLINE
5
105
100
AcDbEntity
8
0
100
AcDbPolyline
90
4
70
1
43
0.0
10
-0.095449465799619659
20
1.9977210514680399
10
12.510020080402251
20
2.6000000000000023
42
-2.3422999690760569
10
12.510020080402251
20
-2.5999999999999996
10
-0.095449465799617023
20
-1.9977210514680401
42
-0.95336159810740817
0
LWPOLYLINE
5
106
100
AcDbEntity
8
0
100
AcDbPolyline
90
4
70
1
43
0.0
10
-21.000000000000014
20
2.0000000000000022
10
-15.000000000000011
20
2.0000000000000018
10
-15.000000000000021
20
-1.9999999999999984
10
-21.000000000000014
20
-1.9999999999999991
0
LWPOLYLINE
5
107
100
AcDbEntity
8
0
100
AcDbPolyline
90
4
70
1
43
0.0
10
-5.0000000000000089
20
2.0000000000000013
10
-5.0000000000000089
20
-1.9999999999999987
10
-11.000000000000011
20
-1.9999999999999987
10
-11.000000000000011
20
2.0000000000000013
0
ENDSEC
0
SECTION
2
OBJECTS
0
DICTIONARY
5
C
100
AcDbDictionary
3
ACAD_GROUP
350
D
3
ACAD_MLINESTYLE
350
17
0
DICTIONARY
5
D
100
AcDbDictionary
0
DICTIONARY
5
1A
330
C
100
AcDbDictionary
0
DICTIONARY
5
17
100
AcDbDictionary
0
ENDSEC
0
EOF
